<?xml version="1.0" encoding="utf-8"?>
<!-- Generator: Adobe Illustrator 25.2.1, SVG Export Plug-In . SVG Version: 6.00 Build 0)  -->
<svg version="1.1" id="Layer_1" xmlns="http://www.w3.org/2000/svg" xmlns:xlink="http://www.w3.org/1999/xlink" x="0px" y="0px"
	 viewBox="0 0 1909.73 648.3" style="enable-background:new 0 0 1909.73 648.3;" xml:space="preserve">
<style type="text/css">
	.st0{fill:url(#SVGID_1_);}
	.st1{fill:url(#SVGID_2_);}
	.st2{fill:url(#SVGID_3_);}
	.st3{fill:url(#SVGID_4_);}
	.st4{fill:url(#SVGID_5_);}
	.st5{fill:url(#SVGID_6_);}
	.st6{fill:url(#SVGID_7_);}
	.st7{fill:url(#SVGID_8_);}
	.st8{opacity:0.7;}
	.st9{fill:url(#SVGID_9_);}
	.st10{fill:url(#SVGID_10_);}
	.st11{fill:url(#SVGID_11_);}
	.st12{fill:url(#SVGID_12_);}
	.st13{fill:url(#SVGID_13_);}
	.st14{fill:url(#SVGID_14_);}
	.st15{fill:url(#SVGID_15_);}
	.st16{fill:url(#SVGID_16_);}
	.st17{fill:url(#SVGID_17_);}
	.st18{fill:url(#SVGID_18_);}
	.st19{fill:url(#SVGID_19_);}
	.st20{fill:url(#SVGID_20_);}
	.st21{fill:url(#SVGID_21_);}
	.st22{fill:url(#SVGID_22_);}
	.st23{fill:url(#SVGID_23_);}
	.st24{fill:url(#SVGID_24_);}
	.st25{fill:url(#SVGID_25_);}
	.st26{fill:url(#SVGID_26_);}
	.st27{fill:url(#SVGID_27_);}
	.st28{fill:url(#SVGID_28_);}
	.st29{fill:url(#SVGID_29_);}
	.st30{fill:url(#SVGID_30_);}
	.st31{fill:url(#SVGID_31_);}
	.st32{fill:url(#SVGID_32_);}
	.st33{fill:url(#SVGID_33_);}
	.st34{fill:url(#SVGID_34_);}
	.st35{fill:none;}
	.st36{fill:#8E8D8D;}
	.st37{fill:url(#SVGID_35_);}
	.st38{fill:url(#SVGID_36_);}
	.st39{fill:url(#SVGID_37_);}
	.st40{fill:url(#SVGID_38_);}
	.st41{fill:url(#SVGID_39_);}
	.st42{fill:url(#SVGID_40_);}
	.st43{fill:url(#SVGID_41_);}
	.st44{fill:url(#SVGID_42_);}
	.st45{fill:url(#SVGID_43_);}
	.st46{fill:url(#SVGID_44_);}
	.st47{fill:url(#SVGID_45_);}
	.st48{fill:url(#SVGID_46_);}
	.st49{fill:url(#SVGID_47_);}
	.st50{fill:url(#SVGID_48_);}
	.st51{fill:url(#SVGID_49_);}
	.st52{fill:url(#SVGID_50_);}
	.st53{fill:url(#SVGID_51_);}
	.st54{fill:url(#SVGID_52_);}
	.st55{fill:url(#SVGID_53_);}
	.st56{fill:url(#SVGID_54_);}
	.st57{fill:url(#SVGID_55_);}
	.st58{fill:url(#SVGID_56_);}
	.st59{fill:url(#SVGID_57_);}
	.st60{fill:url(#SVGID_58_);}
	.st61{fill:url(#SVGID_59_);}
	.st62{fill:url(#SVGID_60_);}
	.st63{fill:url(#SVGID_61_);}
	.st64{fill:url(#SVGID_62_);}
	.st65{fill:url(#SVGID_63_);}
	.st66{fill:url(#SVGID_64_);}
	.st67{fill:url(#SVGID_65_);}
	.st68{fill:url(#SVGID_66_);}
	.st69{fill:url(#SVGID_67_);}
	.st70{fill:url(#SVGID_68_);}
	.st71{fill:url(#SVGID_69_);}
	.st72{fill:url(#SVGID_70_);}
	.st73{fill:url(#SVGID_71_);}
	.st74{fill:url(#SVGID_72_);}
	.st75{fill:url(#SVGID_73_);}
	.st76{fill:url(#SVGID_74_);}
</style>
<g>
	<rect x="91.48" y="106" class="st35" width="1726.78" height="435.77"/>
	<g>
		<g>
			<g>
				<g>
					<rect x="201.22" y="361.11" class="st36" width="617.78" height="4.72"/>
				</g>
				<g>
					<rect x="1009.15" y="361.11" class="st36" width="809.11" height="4.72"/>
				</g>
			</g>
			<g>
				<linearGradient id="SVGID_1_" gradientUnits="userSpaceOnUse" x1="201.2237" y1="222.2518" x2="484.3681" y2="222.2518">
					<stop  offset="0" style="stop-color:#00ABEB"/>
					<stop  offset="0.9944" style="stop-color:#00ABEB"/>
				</linearGradient>
				<path class="st0" d="M308.08,204.77c12.71-20.55,24.78-39.7,32.54-52.68l48.14,96.76c14.25,26.28,32.64,61.21,32.64,63.69
					c0,2.49-0.92,3.1-8.73,3.1h-22.98v8.34h94.69v-8.34h-17.01c-10.11,0-16.09-9.28-22.53-19.48
					c-17.01-27.21-81.82-151.51-81.82-163.87c0-6.49,7.82-5.88,7.82-9.58c0-1.24-0.92-2.17-2.76-2.17c-3.22,0-13.79,1.24-23.9,3.4
					l-46.37,73.97 M259.11,259.63l-31.23,49.81c-3.68,6.19-5.06,6.19-26.66,6.19v8.34h93.31v-8.34h-11.49h-18.39
					c-11.03,0-11.49-5.25-11.49-7.73c0-6.43,7.21-21.67,17.68-40.58"/>
				<linearGradient id="SVGID_2_" gradientUnits="userSpaceOnUse" x1="526.189" y1="255.6444" x2="761.5299" y2="255.6444">
					<stop  offset="0" style="stop-color:#00ABEB"/>
					<stop  offset="0.9944" style="stop-color:#00ABEB"/>
				</linearGradient>
				<path class="st1" d="M590.08,269.87c0,46.68,2.3,46.68,19.3,46.68h18.39v7.42h-90.09v-7.42h17.01c4.14,0,8.73,0,8.73-3.09V227.2
					c0-27.52-5.05-27.52-12.87-27.52h-24.36v-7.42c6.43,0,21.14-1.54,32.18-2.47c14.25-1.24,24.82-2.47,31.72-2.47v24.74
					c23.9-13.29,48.26-24.74,78.14-24.74c43.67,0,55.62,19.79,55.62,38.34v44.21c0,46.68,2.3,46.68,19.3,46.68h18.39v7.42h-90.09
					v-7.42h17.01c4.14,0,8.74,0,8.74-3.09v-80.7c0-24.42-17.01-31.53-38.15-31.53c-27.58,0-48.72,8.96-68.95,20.41V269.87z"/>
				<linearGradient id="SVGID_3_" gradientUnits="userSpaceOnUse" x1="816.2201" y1="293.3649" x2="1013.8715" y2="293.3649">
					<stop  offset="0" style="stop-color:#00ABEB"/>
					<stop  offset="0.9944" style="stop-color:#00ABEB"/>
				</linearGradient>
				<path class="st2" d="M909.07,274.82c-34.01,0-50.56-23.5-50.56-43.59c0-18.55,12.41-35.56,43.21-35.56
					c34.01,0,51.02,22.57,51.02,42.67C952.74,256.57,939.87,274.82,909.07,274.82z M894.82,329.23l38.61,1.55
					c42.29,1.86,58.38,14.53,58.38,29.06c0,20.1-38.15,33.08-81.82,33.08c-28.96,0-71.71-5.87-71.71-30.3
					C838.28,343.14,868.62,330.78,894.82,329.23z M934.35,314.08c-58.84-2.17-72.63-4.02-72.63-13.61
					c0-5.25,11.03-15.45,17.01-19.47c7.82,1.24,15.63,2.17,23.9,2.17c41.83,0,76.76-20.41,76.76-49.16
					c0-12.37-4.14-21.95-16.55-31.23c7.35,0.61,18.85,1.85,24.83,1.85c13.78,0,12.4-3.09,16.08-10.51c0.92-1.55,2.3-4.95,2.3-6.18
					c0-1.55-1.38-2.47-3.68-2.47c-8.27,0,1.38,7.42-29.88,7.42c-12.87,0-26.66-1.24-39.53-3.09c-8.27-0.93-16.09-2.47-24.36-2.47
					c-43.67,0-76.76,23.5-76.76,52.87c0,17.32,12.87,29.99,35.39,38.03c-10.57,8.04-28.04,20.41-28.04,29.37
					c0,10.52,14.71,15.47,28.04,18.25c-26.2,8.03-51.02,18.55-51.02,40.2c0,29.68,48.27,35.24,83.2,35.24
					c50.1,0,114.45-12.67,114.45-46.07C1013.87,316.86,957.34,315.02,934.35,314.08z"/>
				<linearGradient id="SVGID_4_" gradientUnits="userSpaceOnUse" x1="1063.5176" y1="258.1176" x2="1231.7477" y2="258.1176">
					<stop  offset="0" style="stop-color:#00ABEB"/>
					<stop  offset="0.9944" style="stop-color:#00ABEB"/>
				</linearGradient>
				<path class="st3" d="M1090.17,247.3c0-22.88,19.77-51.63,52.4-51.63c25.28,0,43.21,18.55,51.02,33.08L1090.17,247.3z
					 M1225.31,299.55c-16.55,10.51-35.4,15.77-58.84,15.77c-54.7,0-74.01-27.83-76.31-59.98c53.78-8.35,90.56-15.77,136.98-25.67
					c-15.63-21.33-37.69-42.36-76.76-42.36c-58.84,0-86.86,39.88-86.86,74.82c0,34.63,27.12,66.78,84.11,66.78
					c33.1,0,61.59-8.65,84.12-24.73L1225.31,299.55z"/>
				<linearGradient id="SVGID_5_" gradientUnits="userSpaceOnUse" x1="1287.8162" y1="214.9866" x2="1389.3964" y2="214.9866">
					<stop  offset="0" style="stop-color:#00ABEB"/>
					<stop  offset="0.9944" style="stop-color:#00ABEB"/>
				</linearGradient>
				<path class="st4" d="M1325.05,148.05c0-27.52-5.06-27.52-12.87-27.52h-24.36v-7.42c21.6-0.93,42.74-3.4,63.89-7.11v163.87
					c0,46.68,2.3,46.68,19.31,46.68h18.38v7.42h-90.09v-7.42h17c4.13,0,8.74,0,8.74-3.09V148.05z"/>
				<linearGradient id="SVGID_6_" gradientUnits="userSpaceOnUse" x1="1447.3099" y1="258.1176" x2="1615.5399" y2="258.1176">
					<stop  offset="0" style="stop-color:#00ABEB"/>
					<stop  offset="0.9944" style="stop-color:#00ABEB"/>
				</linearGradient>
				<path class="st5" d="M1473.97,247.3c0-22.88,19.76-51.63,52.4-51.63c25.27,0,43.2,18.55,51.01,33.08L1473.97,247.3z
					 M1609.1,299.55c-16.55,10.51-35.4,15.77-58.84,15.77c-54.7,0-74.01-27.83-76.3-59.98c53.78-8.35,90.54-15.77,136.97-25.67
					c-15.63-21.33-37.69-42.36-76.75-42.36c-58.84,0-86.88,39.88-86.88,74.82c0,34.63,27.12,66.78,84.11,66.78
					c33.1,0,61.59-8.65,84.12-24.73L1609.1,299.55z"/>
				<linearGradient id="SVGID_7_" gradientUnits="userSpaceOnUse" x1="1673.4662" y1="258.1176" x2="1818.2574" y2="258.1176">
					<stop  offset="0" style="stop-color:#00ABEB"/>
					<stop  offset="0.9944" style="stop-color:#00ABEB"/>
				</linearGradient>
				<path class="st6" d="M1700.58,221.64c0,33.08,117.67,15.15,117.67,64c0,30.92-48.26,43.28-87.33,43.28
					c-17.46,0-34.93-1.85-51.48-5.87c-2.76-11.75-5.98-23.5-5.98-26.59c0-1.86,1.85-2.78,5.06-2.78c3.68,0,4.6,3.09,5.52,5.25
					c3.21,11.44,35.85,19.78,59.29,19.78c23.44,0,52.4-9.28,52.4-28.44c0-35.87-115.37-14.53-115.37-62.76
					c0-21.03,31.25-40.2,72.16-40.2c18.85,0,36.78,1.86,51.48,6.49c1.38,8.35,2.76,18.86,2.76,21.03c0,1.24-0.91,2.17-3.21,2.17
					c-3.22,0-3.68-1.24-5.06-2.79c-2.3-2.47-11.96-16.69-51.95-16.69C1727.25,197.52,1700.58,205.56,1700.58,221.64z"/>
			</g>
			<g>
				<linearGradient id="SVGID_8_" gradientUnits="userSpaceOnUse" x1="168.5572" y1="182.1736" x2="377.9015" y2="219.0867">
					<stop  offset="0.0112" style="stop-color:#C5BCC3"/>
					<stop  offset="0.0819" style="stop-color:#BEBCC0"/>
					<stop  offset="0.191" style="stop-color:#BABCBE"/>
					<stop  offset="0.2129" style="stop-color:#D5D2D5"/>
					<stop  offset="0.2371" style="stop-color:#EBE4E8"/>
					<stop  offset="0.2602" style="stop-color:#F8EFF3"/>
					<stop  offset="0.2809" style="stop-color:#FDF3F7"/>
					<stop  offset="0.3875" style="stop-color:#F9F0F4"/>
					<stop  offset="0.4903" style="stop-color:#EEE6EA"/>
					<stop  offset="0.5506" style="stop-color:#E3DDE1"/>
					<stop  offset="0.6292" style="stop-color:#BABCBE"/>
					<stop  offset="0.7135" style="stop-color:#B3ABB1"/>
					<stop  offset="0.7865" style="stop-color:#968E94"/>
					<stop  offset="0.8652" style="stop-color:#B7ADB4"/>
					<stop  offset="0.9177" style="stop-color:#B4AAB1"/>
					<stop  offset="0.9557" style="stop-color:#ABA2A9"/>
					<stop  offset="0.989" style="stop-color:#9B949A"/>
					<stop  offset="1" style="stop-color:#948E94"/>
				</linearGradient>
				<path class="st7" d="M347.02,239.54c0,0-139.59-96.64-181.87-38.09c0,0,33.08-87.66,211.61,24.06L347.02,239.54z"/>
				<linearGradient id="SVGID_9_" gradientUnits="userSpaceOnUse" x1="131.9012" y1="200.3556" x2="337.5956" y2="236.6251">
					<stop  offset="0.0112" style="stop-color:#C5BCC3"/>
					<stop  offset="0.0819" style="stop-color:#BEBCC0"/>
					<stop  offset="0.191" style="stop-color:#BABCBE"/>
					<stop  offset="0.2129" style="stop-color:#D5D2D5"/>
					<stop  offset="0.2371" style="stop-color:#EBE4E8"/>
					<stop  offset="0.2602" style="stop-color:#F8EFF3"/>
					<stop  offset="0.2809" style="stop-color:#FDF3F7"/>
					<stop  offset="0.3875" style="stop-color:#F9F0F4"/>
					<stop  offset="0.4903" style="stop-color:#EEE6EA"/>
					<stop  offset="0.5506" style="stop-color:#E3DDE1"/>
					<stop  offset="0.6292" style="stop-color:#BABCBE"/>
					<stop  offset="0.7135" style="stop-color:#B3ABB1"/>
					<stop  offset="0.7865" style="stop-color:#968E94"/>
					<stop  offset="0.8652" style="stop-color:#B7ADB4"/>
					<stop  offset="0.9177" style="stop-color:#B4AAB1"/>
					<stop  offset="0.9557" style="stop-color:#ABA2A9"/>
					<stop  offset="0.989" style="stop-color:#9B949A"/>
					<stop  offset="1" style="stop-color:#948E94"/>
				</linearGradient>
				<path class="st9" d="M307.5,256.41c0,0-136.99-93.82-179.27-35.24c0,0,29.6-89.26,208.13,22.47L307.5,256.41z"/>
				<linearGradient id="SVGID_10_" gradientUnits="userSpaceOnUse" x1="95.2699" y1="221.1422" x2="297.2479" y2="256.7563">
					<stop  offset="0.0112" style="stop-color:#C5BCC3"/>
					<stop  offset="0.0819" style="stop-color:#BEBCC0"/>
					<stop  offset="0.191" style="stop-color:#BABCBE"/>
					<stop  offset="0.2129" style="stop-color:#D5D2D5"/>
					<stop  offset="0.2371" style="stop-color:#EBE4E8"/>
					<stop  offset="0.2602" style="stop-color:#F8EFF3"/>
					<stop  offset="0.2809" style="stop-color:#FDF3F7"/>
					<stop  offset="0.3875" style="stop-color:#F9F0F4"/>
					<stop  offset="0.4903" style="stop-color:#EEE6EA"/>
					<stop  offset="0.5506" style="stop-color:#E3DDE1"/>
					<stop  offset="0.6292" style="stop-color:#BABCBE"/>
					<stop  offset="0.7135" style="stop-color:#B3ABB1"/>
					<stop  offset="0.7865" style="stop-color:#968E94"/>
					<stop  offset="0.8652" style="stop-color:#B7ADB4"/>
					<stop  offset="0.9177" style="stop-color:#B4AAB1"/>
					<stop  offset="0.9557" style="stop-color:#ABA2A9"/>
					<stop  offset="0.989" style="stop-color:#9B949A"/>
					<stop  offset="1" style="stop-color:#948E94"/>
				</linearGradient>
				<path class="st10" d="M265.86,276.75c0,0-132.11-92.67-174.38-34.1c0,0,26.14-91.33,204.66,20.38L265.86,276.75z"/>
			</g>
		</g>
	</g>
	<g>
		<g>
			<g>
				<g>
					<g>
						<g>
							
								<linearGradient id="SVGID_11_" gradientUnits="userSpaceOnUse" x1="-9385.3516" y1="331.7453" x2="-9226.9932" y2="490.1037" gradientTransform="matrix(-1 0 0 1 -7891.6172 0)">
								<stop  offset="0.0112" style="stop-color:#C5BCC3"/>
								<stop  offset="0.0819" style="stop-color:#BEBCC0"/>
								<stop  offset="0.191" style="stop-color:#BABCBE"/>
								<stop  offset="0.2129" style="stop-color:#D5D2D5"/>
								<stop  offset="0.2371" style="stop-color:#EBE4E8"/>
								<stop  offset="0.2602" style="stop-color:#F8EFF3"/>
								<stop  offset="0.2809" style="stop-color:#FDF3F7"/>
								<stop  offset="0.3875" style="stop-color:#F9F0F4"/>
								<stop  offset="0.4903" style="stop-color:#EEE6EA"/>
								<stop  offset="0.5506" style="stop-color:#E3DDE1"/>
								<stop  offset="0.6292" style="stop-color:#BABCBE"/>
								<stop  offset="0.7135" style="stop-color:#B3ABB1"/>
								<stop  offset="0.7865" style="stop-color:#968E94"/>
								<stop  offset="0.8652" style="stop-color:#B7ADB4"/>
								<stop  offset="0.9177" style="stop-color:#B4AAB1"/>
								<stop  offset="0.9557" style="stop-color:#ABA2A9"/>
								<stop  offset="0.989" style="stop-color:#9B949A"/>
								<stop  offset="1" style="stop-color:#948E94"/>
							</linearGradient>
							<polygon class="st11" points="1405.17,444.86 1458.13,391.91 1303.1,391.91 1303.1,497.82 1458.13,497.82 							"/>
							<g>
								<linearGradient id="SVGID_12_" gradientUnits="userSpaceOnUse" x1="1303.0999" y1="395.2621" x2="1458.1305" y2="395.2621">
									<stop  offset="0.0112" style="stop-color:#C5BCC3"/>
									<stop  offset="0.0819" style="stop-color:#BEBCC0"/>
									<stop  offset="0.191" style="stop-color:#BABCBE"/>
									<stop  offset="0.2129" style="stop-color:#D5D2D5"/>
									<stop  offset="0.2371" style="stop-color:#EBE4E8"/>
									<stop  offset="0.2602" style="stop-color:#F8EFF3"/>
									<stop  offset="0.2809" style="stop-color:#FDF3F7"/>
									<stop  offset="0.3875" style="stop-color:#F9F0F4"/>
									<stop  offset="0.4903" style="stop-color:#EEE6EA"/>
									<stop  offset="0.5506" style="stop-color:#E3DDE1"/>
									<stop  offset="0.6292" style="stop-color:#BABCBE"/>
									<stop  offset="0.7135" style="stop-color:#B3ABB1"/>
									<stop  offset="0.7865" style="stop-color:#968E94"/>
									<stop  offset="0.8652" style="stop-color:#B7ADB4"/>
									<stop  offset="0.9177" style="stop-color:#B4AAB1"/>
									<stop  offset="0.9557" style="stop-color:#ABA2A9"/>
									<stop  offset="0.989" style="stop-color:#9B949A"/>
									<stop  offset="1" style="stop-color:#948E94"/>
								</linearGradient>
								<polygon class="st12" points="1303.1,391.91 1303.1,398.62 1451.42,398.62 1458.13,391.91 								"/>
								<linearGradient id="SVGID_13_" gradientUnits="userSpaceOnUse" x1="1303.0999" y1="494.4672" x2="1458.1305" y2="494.4672">
									<stop  offset="0.0112" style="stop-color:#C5BCC3"/>
									<stop  offset="0.0819" style="stop-color:#BEBCC0"/>
									<stop  offset="0.191" style="stop-color:#BABCBE"/>
									<stop  offset="0.2129" style="stop-color:#D5D2D5"/>
									<stop  offset="0.2371" style="stop-color:#EBE4E8"/>
									<stop  offset="0.2602" style="stop-color:#F8EFF3"/>
									<stop  offset="0.2809" style="stop-color:#FDF3F7"/>
									<stop  offset="0.3875" style="stop-color:#F9F0F4"/>
									<stop  offset="0.4903" style="stop-color:#EEE6EA"/>
									<stop  offset="0.5506" style="stop-color:#E3DDE1"/>
									<stop  offset="0.6292" style="stop-color:#BABCBE"/>
									<stop  offset="0.7135" style="stop-color:#B3ABB1"/>
									<stop  offset="0.7865" style="stop-color:#968E94"/>
									<stop  offset="0.8652" style="stop-color:#B7ADB4"/>
									<stop  offset="0.9177" style="stop-color:#B4AAB1"/>
									<stop  offset="0.9557" style="stop-color:#ABA2A9"/>
									<stop  offset="0.989" style="stop-color:#9B949A"/>
									<stop  offset="1" style="stop-color:#948E94"/>
								</linearGradient>
								<polygon class="st13" points="1303.1,491.11 1303.1,497.82 1458.13,497.82 1451.42,491.11 								"/>
							</g>
						</g>
						<g>
							<linearGradient id="SVGID_14_" gradientUnits="userSpaceOnUse" x1="530.8783" y1="331.7453" x2="689.2367" y2="490.1037">
								<stop  offset="0.0112" style="stop-color:#C5BCC3"/>
								<stop  offset="0.0819" style="stop-color:#BEBCC0"/>
								<stop  offset="0.191" style="stop-color:#BABCBE"/>
								<stop  offset="0.2129" style="stop-color:#D5D2D5"/>
								<stop  offset="0.2371" style="stop-color:#EBE4E8"/>
								<stop  offset="0.2602" style="stop-color:#F8EFF3"/>
								<stop  offset="0.2809" style="stop-color:#FDF3F7"/>
								<stop  offset="0.3875" style="stop-color:#F9F0F4"/>
								<stop  offset="0.4903" style="stop-color:#EEE6EA"/>
								<stop  offset="0.5506" style="stop-color:#E3DDE1"/>
								<stop  offset="0.6292" style="stop-color:#BABCBE"/>
								<stop  offset="0.7135" style="stop-color:#B3ABB1"/>
								<stop  offset="0.7865" style="stop-color:#968E94"/>
								<stop  offset="0.8652" style="stop-color:#B7ADB4"/>
								<stop  offset="0.9177" style="stop-color:#B4AAB1"/>
								<stop  offset="0.9557" style="stop-color:#ABA2A9"/>
								<stop  offset="0.989" style="stop-color:#9B949A"/>
								<stop  offset="1" style="stop-color:#948E94"/>
							</linearGradient>
							<polygon class="st14" points="619.44,444.86 566.48,391.91 721.51,391.91 721.51,497.82 566.48,497.82 							"/>
							<g class="st8">
								
									<linearGradient id="SVGID_15_" gradientUnits="userSpaceOnUse" x1="-7878.2158" y1="395.2621" x2="-7723.1851" y2="395.2621" gradientTransform="matrix(-1 0 0 1 -7156.7026 0)">
									<stop  offset="0.0112" style="stop-color:#C5BCC3"/>
									<stop  offset="0.0819" style="stop-color:#BEBCC0"/>
									<stop  offset="0.191" style="stop-color:#BABCBE"/>
									<stop  offset="0.2129" style="stop-color:#D5D2D5"/>
									<stop  offset="0.2371" style="stop-color:#EBE4E8"/>
									<stop  offset="0.2602" style="stop-color:#F8EFF3"/>
									<stop  offset="0.2809" style="stop-color:#FDF3F7"/>
									<stop  offset="0.3875" style="stop-color:#F9F0F4"/>
									<stop  offset="0.4903" style="stop-color:#EEE6EA"/>
									<stop  offset="0.5506" style="stop-color:#E3DDE1"/>
									<stop  offset="0.6292" style="stop-color:#BABCBE"/>
									<stop  offset="0.7135" style="stop-color:#B3ABB1"/>
									<stop  offset="0.7865" style="stop-color:#968E94"/>
									<stop  offset="0.8652" style="stop-color:#B7ADB4"/>
									<stop  offset="0.9177" style="stop-color:#B4AAB1"/>
									<stop  offset="0.9557" style="stop-color:#ABA2A9"/>
									<stop  offset="0.989" style="stop-color:#9B949A"/>
									<stop  offset="1" style="stop-color:#948E94"/>
								</linearGradient>
								<polygon class="st15" points="721.51,391.91 721.51,398.62 573.19,398.62 566.48,391.91 								"/>
								
									<linearGradient id="SVGID_16_" gradientUnits="userSpaceOnUse" x1="-7878.2158" y1="494.4672" x2="-7723.1851" y2="494.4672" gradientTransform="matrix(-1 0 0 1 -7156.7026 0)">
									<stop  offset="0.0112" style="stop-color:#C5BCC3"/>
									<stop  offset="0.0819" style="stop-color:#BEBCC0"/>
									<stop  offset="0.191" style="stop-color:#BABCBE"/>
									<stop  offset="0.2129" style="stop-color:#D5D2D5"/>
									<stop  offset="0.2371" style="stop-color:#EBE4E8"/>
									<stop  offset="0.2602" style="stop-color:#F8EFF3"/>
									<stop  offset="0.2809" style="stop-color:#FDF3F7"/>
									<stop  offset="0.3875" style="stop-color:#F9F0F4"/>
									<stop  offset="0.4903" style="stop-color:#EEE6EA"/>
									<stop  offset="0.5506" style="stop-color:#E3DDE1"/>
									<stop  offset="0.6292" style="stop-color:#BABCBE"/>
									<stop  offset="0.7135" style="stop-color:#B3ABB1"/>
									<stop  offset="0.7865" style="stop-color:#968E94"/>
									<stop  offset="0.8652" style="stop-color:#B7ADB4"/>
									<stop  offset="0.9177" style="stop-color:#B4AAB1"/>
									<stop  offset="0.9557" style="stop-color:#ABA2A9"/>
									<stop  offset="0.989" style="stop-color:#9B949A"/>
									<stop  offset="1" style="stop-color:#948E94"/>
								</linearGradient>
								<polygon class="st16" points="721.51,491.11 721.51,497.82 566.48,497.82 573.19,491.11 								"/>
							</g>
						</g>
					</g>
					<g>
						<g>
							<linearGradient id="SVGID_17_" gradientUnits="userSpaceOnUse" x1="691.3021" y1="325.6953" x2="691.3021" y2="440.2375">
								<stop  offset="0.0112" style="stop-color:#C5BCC3"/>
								<stop  offset="0.0819" style="stop-color:#BEBCC0"/>
								<stop  offset="0.191" style="stop-color:#BABCBE"/>
								<stop  offset="0.2129" style="stop-color:#D5D2D5"/>
								<stop  offset="0.2371" style="stop-color:#EBE4E8"/>
								<stop  offset="0.2602" style="stop-color:#F8EFF3"/>
								<stop  offset="0.2809" style="stop-color:#FDF3F7"/>
								<stop  offset="0.3875" style="stop-color:#F9F0F4"/>
								<stop  offset="0.4903" style="stop-color:#EEE6EA"/>
								<stop  offset="0.5506" style="stop-color:#E3DDE1"/>
								<stop  offset="0.6292" style="stop-color:#BABCBE"/>
								<stop  offset="0.7135" style="stop-color:#B3ABB1"/>
								<stop  offset="0.7865" style="stop-color:#968E94"/>
								<stop  offset="0.8652" style="stop-color:#B7ADB4"/>
								<stop  offset="0.9177" style="stop-color:#B4AAB1"/>
								<stop  offset="0.9557" style="stop-color:#ABA2A9"/>
								<stop  offset="0.989" style="stop-color:#9B949A"/>
								<stop  offset="1" style="stop-color:#948E94"/>
							</linearGradient>
							<polygon class="st17" points="721.51,391.91 661.09,436.39 721.51,436.39 							"/>
							<linearGradient id="SVGID_18_" gradientUnits="userSpaceOnUse" x1="691.3021" y1="325.6953" x2="691.3021" y2="440.2375">
								<stop  offset="0.0112" style="stop-color:#C5BCC3"/>
								<stop  offset="0.0819" style="stop-color:#BEBCC0"/>
								<stop  offset="0.191" style="stop-color:#BABCBE"/>
								<stop  offset="0.2129" style="stop-color:#D5D2D5"/>
								<stop  offset="0.2371" style="stop-color:#EBE4E8"/>
								<stop  offset="0.2602" style="stop-color:#F8EFF3"/>
								<stop  offset="0.2809" style="stop-color:#FDF3F7"/>
								<stop  offset="0.3875" style="stop-color:#F9F0F4"/>
								<stop  offset="0.4903" style="stop-color:#EEE6EA"/>
								<stop  offset="0.5506" style="stop-color:#E3DDE1"/>
								<stop  offset="0.6292" style="stop-color:#BABCBE"/>
								<stop  offset="0.7135" style="stop-color:#B3ABB1"/>
								<stop  offset="0.7865" style="stop-color:#968E94"/>
								<stop  offset="0.8652" style="stop-color:#B7ADB4"/>
								<stop  offset="0.9177" style="stop-color:#B4AAB1"/>
								<stop  offset="0.9557" style="stop-color:#ABA2A9"/>
								<stop  offset="0.989" style="stop-color:#9B949A"/>
								<stop  offset="1" style="stop-color:#948E94"/>
							</linearGradient>
							<polygon class="st18" points="721.51,391.91 661.09,436.39 721.51,436.39 							"/>
						</g>
						<g>
							
								<linearGradient id="SVGID_19_" gradientUnits="userSpaceOnUse" x1="-9171.333" y1="325.6953" x2="-9171.333" y2="440.2375" gradientTransform="matrix(-1 0 0 1 -7838.0225 0)">
								<stop  offset="0.0112" style="stop-color:#C5BCC3"/>
								<stop  offset="0.0819" style="stop-color:#BEBCC0"/>
								<stop  offset="0.191" style="stop-color:#BABCBE"/>
								<stop  offset="0.2129" style="stop-color:#D5D2D5"/>
								<stop  offset="0.2371" style="stop-color:#EBE4E8"/>
								<stop  offset="0.2602" style="stop-color:#F8EFF3"/>
								<stop  offset="0.2809" style="stop-color:#FDF3F7"/>
								<stop  offset="0.3875" style="stop-color:#F9F0F4"/>
								<stop  offset="0.4903" style="stop-color:#EEE6EA"/>
								<stop  offset="0.5506" style="stop-color:#E3DDE1"/>
								<stop  offset="0.6292" style="stop-color:#BABCBE"/>
								<stop  offset="0.7135" style="stop-color:#B3ABB1"/>
								<stop  offset="0.7865" style="stop-color:#968E94"/>
								<stop  offset="0.8652" style="stop-color:#B7ADB4"/>
								<stop  offset="0.9177" style="stop-color:#B4AAB1"/>
								<stop  offset="0.9557" style="stop-color:#ABA2A9"/>
								<stop  offset="0.989" style="stop-color:#9B949A"/>
								<stop  offset="1" style="stop-color:#948E94"/>
							</linearGradient>
							<polygon class="st19" points="1303.1,391.91 1363.52,436.39 1303.1,436.39 							"/>
							
								<linearGradient id="SVGID_20_" gradientUnits="userSpaceOnUse" x1="-9171.333" y1="325.6953" x2="-9171.333" y2="440.2375" gradientTransform="matrix(-1 0 0 1 -7838.0225 0)">
								<stop  offset="0.0112" style="stop-color:#C5BCC3"/>
								<stop  offset="0.0819" style="stop-color:#BEBCC0"/>
								<stop  offset="0.191" style="stop-color:#BABCBE"/>
								<stop  offset="0.2129" style="stop-color:#D5D2D5"/>
								<stop  offset="0.2371" style="stop-color:#EBE4E8"/>
								<stop  offset="0.2602" style="stop-color:#F8EFF3"/>
								<stop  offset="0.2809" style="stop-color:#FDF3F7"/>
								<stop  offset="0.3875" style="stop-color:#F9F0F4"/>
								<stop  offset="0.4903" style="stop-color:#EEE6EA"/>
								<stop  offset="0.5506" style="stop-color:#E3DDE1"/>
								<stop  offset="0.6292" style="stop-color:#BABCBE"/>
								<stop  offset="0.7135" style="stop-color:#B3ABB1"/>
								<stop  offset="0.7865" style="stop-color:#968E94"/>
								<stop  offset="0.8652" style="stop-color:#B7ADB4"/>
								<stop  offset="0.9177" style="stop-color:#B4AAB1"/>
								<stop  offset="0.9557" style="stop-color:#ABA2A9"/>
								<stop  offset="0.989" style="stop-color:#9B949A"/>
								<stop  offset="1" style="stop-color:#948E94"/>
							</linearGradient>
							<polygon class="st20" points="1303.1,391.91 1363.52,436.39 1303.1,436.39 							"/>
						</g>
					</g>
				</g>
				<g>
					<g>
						<linearGradient id="SVGID_21_" gradientUnits="userSpaceOnUse" x1="1241.4642" y1="718.503" x2="750.0864" y2="227.1251">
							<stop  offset="0.0112" style="stop-color:#C5BCC3"/>
							<stop  offset="0.0221" style="stop-color:#C9C1C7"/>
							<stop  offset="0.0795" style="stop-color:#D9D5D8"/>
							<stop  offset="0.1363" style="stop-color:#E3E2E3"/>
							<stop  offset="0.191" style="stop-color:#E6E6E6"/>
							<stop  offset="0.2023" style="stop-color:#EBE9EA"/>
							<stop  offset="0.2437" style="stop-color:#F8F0F4"/>
							<stop  offset="0.2809" style="stop-color:#FDF3F7"/>
							<stop  offset="0.3875" style="stop-color:#F9F0F4"/>
							<stop  offset="0.4903" style="stop-color:#EEE6EA"/>
							<stop  offset="0.5506" style="stop-color:#E3DDE1"/>
							<stop  offset="0.6292" style="stop-color:#F2F2F2"/>
							<stop  offset="0.7135" style="stop-color:#CCCCCC"/>
							<stop  offset="0.7865" style="stop-color:#CCCCCC"/>
							<stop  offset="0.8652" style="stop-color:#B7ADB4"/>
							<stop  offset="0.9089" style="stop-color:#B9B0B7"/>
							<stop  offset="0.9405" style="stop-color:#C1B9BF"/>
							<stop  offset="0.9682" style="stop-color:#CEC9CD"/>
							<stop  offset="0.9936" style="stop-color:#E0DFE0"/>
							<stop  offset="1" style="stop-color:#E6E6E6"/>
						</linearGradient>
						<rect x="661.09" y="436.39" class="st21" width="702.43" height="105.92"/>
					</g>
					<g>
						<linearGradient id="SVGID_22_" gradientUnits="userSpaceOnUse" x1="661.0913" y1="439.7426" x2="1363.5216" y2="439.7426">
							<stop  offset="0.0112" style="stop-color:#C5BCC3"/>
							<stop  offset="0.0819" style="stop-color:#BEBCC0"/>
							<stop  offset="0.191" style="stop-color:#BABCBE"/>
							<stop  offset="0.2129" style="stop-color:#D5D2D5"/>
							<stop  offset="0.2371" style="stop-color:#EBE4E8"/>
							<stop  offset="0.2602" style="stop-color:#F8EFF3"/>
							<stop  offset="0.2809" style="stop-color:#FDF3F7"/>
							<stop  offset="0.3875" style="stop-color:#F9F0F4"/>
							<stop  offset="0.4903" style="stop-color:#EEE6EA"/>
							<stop  offset="0.5506" style="stop-color:#E3DDE1"/>
							<stop  offset="0.6292" style="stop-color:#BABCBE"/>
							<stop  offset="0.7135" style="stop-color:#B3ABB1"/>
							<stop  offset="0.7865" style="stop-color:#968E94"/>
							<stop  offset="0.8652" style="stop-color:#B7ADB4"/>
							<stop  offset="0.9177" style="stop-color:#B4AAB1"/>
							<stop  offset="0.9557" style="stop-color:#ABA2A9"/>
							<stop  offset="0.989" style="stop-color:#9B949A"/>
							<stop  offset="1" style="stop-color:#948E94"/>
						</linearGradient>
						<rect x="661.09" y="436.39" class="st22" width="702.43" height="6.71"/>
						<linearGradient id="SVGID_23_" gradientUnits="userSpaceOnUse" x1="661.0913" y1="538.9477" x2="1363.5216" y2="538.9477">
							<stop  offset="0.0112" style="stop-color:#C5BCC3"/>
							<stop  offset="0.0819" style="stop-color:#BEBCC0"/>
							<stop  offset="0.191" style="stop-color:#BABCBE"/>
							<stop  offset="0.2129" style="stop-color:#D5D2D5"/>
							<stop  offset="0.2371" style="stop-color:#EBE4E8"/>
							<stop  offset="0.2602" style="stop-color:#F8EFF3"/>
							<stop  offset="0.2809" style="stop-color:#FDF3F7"/>
							<stop  offset="0.3875" style="stop-color:#F9F0F4"/>
							<stop  offset="0.4903" style="stop-color:#EEE6EA"/>
							<stop  offset="0.5506" style="stop-color:#E3DDE1"/>
							<stop  offset="0.6292" style="stop-color:#BABCBE"/>
							<stop  offset="0.7135" style="stop-color:#B3ABB1"/>
							<stop  offset="0.7865" style="stop-color:#968E94"/>
							<stop  offset="0.8652" style="stop-color:#B7ADB4"/>
							<stop  offset="0.9177" style="stop-color:#B4AAB1"/>
							<stop  offset="0.9557" style="stop-color:#ABA2A9"/>
							<stop  offset="0.989" style="stop-color:#9B949A"/>
							<stop  offset="1" style="stop-color:#948E94"/>
						</linearGradient>
						<rect x="661.09" y="535.59" class="st23" width="702.43" height="6.71"/>
					</g>
				</g>
			</g>
		</g>
		<g>
			<linearGradient id="SVGID_24_" gradientUnits="userSpaceOnUse" x1="748.0766" y1="488.1894" x2="765.193" y2="488.1894">
				<stop  offset="0" style="stop-color:#00ABEB"/>
				<stop  offset="0.9944" style="stop-color:#00ABEB"/>
			</linearGradient>
			<path class="st24" d="M748.43,500.85c-0.16,0-0.35-0.04-0.35-0.31c0-0.16,2.17-2.24,3.6-3.76c3.48-3.64,7.74-8.02,7.74-13.4
				c0-3.56-1.78-5.92-5.5-5.92c-1.74,0-3.48,0.62-4.88,1.7l-0.58-0.81c1.9-1.78,4.49-2.83,7.09-2.83c4.18,0,7.16,2.63,7.16,6.97
				c0,5.23-3.64,8.64-7.09,12.04l-3.56,3.56c5.19-0.12,9.68-0.15,11.35-0.5c0.97-0.19,0.85-0.97,1.36-0.97
				c0.23,0,0.43,0.19,0.43,0.43c0,0.15-0.85,2.13-1.47,3.79H748.43z"/>
			<linearGradient id="SVGID_25_" gradientUnits="userSpaceOnUse" x1="775.6476" y1="488.5571" x2="792.7632" y2="488.5571">
				<stop  offset="0" style="stop-color:#00ABEB"/>
				<stop  offset="0.9944" style="stop-color:#00ABEB"/>
			</linearGradient>
			<path class="st25" d="M792.76,487.92c0,6.47-3.1,13.67-9.29,13.67c-6.16,0-7.82-7.43-7.82-12.39c0-6.47,3.1-13.67,9.29-13.67
				C791.1,475.53,792.76,482.96,792.76,487.92z M778.67,486.76c0,3.72,0.93,13.32,6.08,13.32c2.05,0,5-1.9,5-9.72
				c0-3.72-0.93-13.32-6.08-13.32C781.61,477.04,778.67,478.93,778.67,486.76z"/>
			<linearGradient id="SVGID_26_" gradientUnits="userSpaceOnUse" x1="803.4904" y1="488.5571" x2="820.606" y2="488.5571">
				<stop  offset="0" style="stop-color:#00ABEB"/>
				<stop  offset="0.9944" style="stop-color:#00ABEB"/>
			</linearGradient>
			<path class="st26" d="M820.61,487.92c0,6.47-3.1,13.67-9.29,13.67c-6.16,0-7.82-7.43-7.82-12.39c0-6.47,3.1-13.67,9.29-13.67
				C818.94,475.53,820.61,482.96,820.61,487.92z M806.51,486.76c0,3.72,0.93,13.32,6.08,13.32c2.05,0,5-1.9,5-9.72
				c0-3.72-0.93-13.32-6.08-13.32C809.45,477.04,806.51,478.93,806.51,486.76z"/>
			<linearGradient id="SVGID_27_" gradientUnits="userSpaceOnUse" x1="834.0817" y1="488.1894" x2="846.3958" y2="488.1894">
				<stop  offset="0" style="stop-color:#00ABEB"/>
				<stop  offset="0.9944" style="stop-color:#00ABEB"/>
			</linearGradient>
			<path class="st27" d="M841.63,492.8c0,6.35,0,6.89,1.43,6.89h3.33v1.16h-12.31v-1.16h3.48c0.5,0,0.93,0,0.93-0.7v-15.3
				c0-6.27-0.23-6.27-1.7-6.27h-2.71v-1.16c3.83,0,6.89-0.74,7.55-0.74V492.8z"/>
		</g>
		<g>
			<linearGradient id="SVGID_28_" gradientUnits="userSpaceOnUse" x1="1182.2692" y1="488.1894" x2="1199.3855" y2="488.1894">
				<stop  offset="0" style="stop-color:#00ABEB"/>
				<stop  offset="0.9944" style="stop-color:#00ABEB"/>
			</linearGradient>
			<path class="st28" d="M1182.62,500.85c-0.16,0-0.35-0.04-0.35-0.31c0-0.16,2.17-2.24,3.6-3.76c3.49-3.64,7.75-8.02,7.75-13.4
				c0-3.56-1.78-5.92-5.5-5.92c-1.74,0-3.49,0.62-4.88,1.7l-0.58-0.81c1.9-1.78,4.49-2.83,7.09-2.83c4.18,0,7.16,2.63,7.16,6.97
				c0,5.23-3.64,8.64-7.09,12.04l-3.56,3.56c5.19-0.12,9.68-0.15,11.35-0.5c0.97-0.19,0.85-0.97,1.35-0.97
				c0.23,0,0.43,0.19,0.43,0.43c0,0.15-0.85,2.13-1.47,3.79H1182.62z"/>
			<linearGradient id="SVGID_29_" gradientUnits="userSpaceOnUse" x1="1209.8409" y1="488.5571" x2="1226.9558" y2="488.5571">
				<stop  offset="0" style="stop-color:#00ABEB"/>
				<stop  offset="0.9944" style="stop-color:#00ABEB"/>
			</linearGradient>
			<path class="st29" d="M1226.96,487.92c0,6.47-3.1,13.67-9.29,13.67c-6.16,0-7.82-7.43-7.82-12.39c0-6.47,3.1-13.67,9.29-13.67
				C1225.29,475.53,1226.96,482.96,1226.96,487.92z M1212.86,486.76c0,3.72,0.93,13.32,6.08,13.32c2.05,0,5-1.9,5-9.72
				c0-3.72-0.93-13.32-6.08-13.32C1215.8,477.04,1212.86,478.93,1212.86,486.76z"/>
			<linearGradient id="SVGID_30_" gradientUnits="userSpaceOnUse" x1="1237.9515" y1="488.1894" x2="1255.068" y2="488.1894">
				<stop  offset="0" style="stop-color:#00ABEB"/>
				<stop  offset="0.9944" style="stop-color:#00ABEB"/>
			</linearGradient>
			<path class="st30" d="M1238.3,500.85c-0.16,0-0.35-0.04-0.35-0.31c0-0.16,2.17-2.24,3.6-3.76c3.49-3.64,7.75-8.02,7.75-13.4
				c0-3.56-1.78-5.92-5.5-5.92c-1.74,0-3.49,0.62-4.88,1.7l-0.58-0.81c1.9-1.78,4.49-2.83,7.09-2.83c4.18,0,7.16,2.63,7.16,6.97
				c0,5.23-3.64,8.64-7.09,12.04l-3.56,3.56c5.19-0.12,9.68-0.15,11.35-0.5c0.97-0.19,0.85-0.97,1.35-0.97
				c0.23,0,0.43,0.19,0.43,0.43c0,0.15-0.85,2.13-1.47,3.79H1238.3z"/>
			<linearGradient id="SVGID_31_" gradientUnits="userSpaceOnUse" x1="1268.2719" y1="488.1894" x2="1280.5868" y2="488.1894">
				<stop  offset="0" style="stop-color:#00ABEB"/>
				<stop  offset="0.9944" style="stop-color:#00ABEB"/>
			</linearGradient>
			<path class="st31" d="M1275.82,492.8c0,6.35,0,6.89,1.43,6.89h3.33v1.16h-12.31v-1.16h3.49c0.5,0,0.93,0,0.93-0.7v-15.3
				c0-6.27-0.23-6.27-1.7-6.27h-2.71v-1.16c3.83,0,6.89-0.74,7.55-0.74V492.8z"/>
		</g>
		<linearGradient id="SVGID_32_" gradientUnits="userSpaceOnUse" x1="868.5867" y1="488.8656" x2="874.477" y2="488.8656">
			<stop  offset="0" style="stop-color:#00ABEB"/>
			<stop  offset="0.9944" style="stop-color:#00ABEB"/>
		</linearGradient>
		<circle class="st32" cx="871.53" cy="488.87" r="2.95"/>
		<linearGradient id="SVGID_33_" gradientUnits="userSpaceOnUse" x1="1152.437" y1="488.8656" x2="1158.3274" y2="488.8656">
			<stop  offset="0" style="stop-color:#00ABEB"/>
			<stop  offset="0.9944" style="stop-color:#00ABEB"/>
		</linearGradient>
		<circle class="st33" cx="1155.38" cy="488.87" r="2.95"/>
		<g>
			<g>
				<linearGradient id="SVGID_34_" gradientUnits="userSpaceOnUse" x1="895.8845" y1="485.3631" x2="921.8118" y2="485.3631">
					<stop  offset="0" style="stop-color:#00ABEB"/>
					<stop  offset="0.9944" style="stop-color:#00ABEB"/>
				</linearGradient>
				<path class="st34" d="M896.41,504.55c-0.23,0-0.53-0.06-0.53-0.47c0-0.23,3.28-3.4,5.45-5.69c5.28-5.51,11.73-12.14,11.73-20.3
					c0-5.4-2.7-8.98-8.33-8.98c-2.64,0-5.28,0.94-7.39,2.58l-0.88-1.23c2.87-2.7,6.8-4.28,10.73-4.28c6.34,0,10.85,3.99,10.85,10.56
					c0,7.92-5.51,13.08-10.73,18.24l-5.4,5.4c7.86-0.18,14.66-0.23,17.19-0.76c1.47-0.29,1.29-1.47,2.05-1.47
					c0.35,0,0.64,0.29,0.64,0.64c0,0.23-1.29,3.23-2.23,5.75H896.41z"/>
				<linearGradient id="SVGID_35_" gradientUnits="userSpaceOnUse" x1="937.6429" y1="485.9204" x2="963.5701" y2="485.9204">
					<stop  offset="0" style="stop-color:#00ABEB"/>
					<stop  offset="0.9944" style="stop-color:#00ABEB"/>
				</linearGradient>
				<path class="st37" d="M963.57,484.95c0,9.8-4.69,20.71-14.08,20.71c-9.33,0-11.85-11.26-11.85-18.77
					c0-9.8,4.69-20.71,14.08-20.71C961.05,466.18,963.57,477.44,963.57,484.95z M942.22,483.19c0,5.63,1.41,20.18,9.21,20.18
					c3.11,0,7.57-2.87,7.57-14.72c0-5.63-1.41-20.18-9.21-20.18C946.68,468.47,942.22,471.34,942.22,483.19z"/>
			</g>
			<g>
				<linearGradient id="SVGID_36_" gradientUnits="userSpaceOnUse" x1="983.5994" y1="487.5128" x2="1005.2471" y2="487.5128">
					<stop  offset="0" style="stop-color:#00ABEB"/>
					<stop  offset="0.9944" style="stop-color:#00ABEB"/>
				</linearGradient>
				<path class="st38" d="M996.55,493.13c0,3.95,0.08,5.4,1.07,5.4h2.18v1.15h-8.89v-1.15h1.8c0.42,0,0.57-0.27,0.57-0.61v-8.7
					c-4.41-7.7-5.71-10.35-7.13-12.15c-0.42-0.54-0.61-0.58-1.27-0.58h-1.3v-1.15h8.62v1.15h-1.76c-0.27,0-0.61,0-0.61,0.15
					c0,0.35,3.3,5.94,6.17,11c4.71-8.85,5.25-9.96,5.25-10.69c0-0.42-0.31-0.46-0.77-0.46h-2.22v-1.15h6.97v1.15h-1.34
					c-0.61,0-0.8,0.65-1.07,1.15l-6.28,11.46V493.13z"/>
				<linearGradient id="SVGID_37_" gradientUnits="userSpaceOnUse" x1="1014.405" y1="487.5128" x2="1034.5602" y2="487.5128">
					<stop  offset="0" style="stop-color:#00ABEB"/>
					<stop  offset="0.9944" style="stop-color:#00ABEB"/>
				</linearGradient>
				<path class="st39" d="M1017.74,481.9c0-3.95-0.08-5.4-1.07-5.4h-2.26v-1.15h19.2c-0.35,3.37-0.46,3.49-0.8,3.56
					c-0.31,0-0.38-0.19-0.46-0.69c-0.11-0.46-0.77-1.49-6.82-1.49h-3.76c-0.57,0-0.77,0.31-0.77,0.69v8.31h4.45
					c3.95,0,5.13-0.15,5.13-1.3v-1.5h1.03v6.48h-1.03v-1.34c0-1.03-0.38-1.07-4.75-1.07H1021v6.55c0,4.75,0.42,4.75,1.57,4.75h2.57
					c6.51,0,8.01-0.96,8.66-2.03c0.12-0.19,0.19-0.42,0.46-0.42c0.15,0,0.31,0.23,0.31,0.42c0,0.35-0.5,1.88-0.96,3.41h-18.24v-1.15
					h1.8c0.42,0,0.57-0.27,0.57-0.61V481.9z"/>
				<linearGradient id="SVGID_38_" gradientUnits="userSpaceOnUse" x1="1043.7579" y1="487.0721" x2="1067.6659" y2="487.0721">
					<stop  offset="0" style="stop-color:#00ABEB"/>
					<stop  offset="0.9944" style="stop-color:#00ABEB"/>
				</linearGradient>
				<path class="st40" d="M1050.35,490.56c-0.84,2.15-2.22,5.9-2.22,6.97c0,0.8,0.38,0.99,0.96,0.99h2.41v1.15h-7.74v-1.15h0.77
					c0.57,0,1.15-0.11,1.38-0.61l9.69-22.95c0.96-0.23,2.03-0.5,2.26-0.5c0.19,0,0.38,0.12,0.38,0.38c0,0.5-0.69,0.46-0.69,1.19
					c0,1.65,4.75,14.44,6.63,19.54c0.88,2.41,1.34,2.95,2.34,2.95h1.15v1.15h-8.58v-1.15h2.07c0.27,0,0.54-0.11,0.54-0.38
					c0-0.27-1.07-2.95-2.64-7.59H1050.35z M1055.14,478.99l-4.25,10.19h7.63L1055.14,478.99z"/>
				<linearGradient id="SVGID_39_" gradientUnits="userSpaceOnUse" x1="1077.4379" y1="487.5128" x2="1099.5847" y2="487.5128">
					<stop  offset="0" style="stop-color:#00ABEB"/>
					<stop  offset="0.9944" style="stop-color:#00ABEB"/>
				</linearGradient>
				<path class="st41" d="M1080.77,481.9c0-3.95-0.08-5.4-1.07-5.4h-2.26v-1.15h10.73c3.37,0,7.7,1.72,7.7,6.59
					c0,3.45-2.61,5.56-5.98,6.17c6.32,9.16,7.63,10.42,8.74,10.42h0.96v1.15h-4.41c-0.88,0-1.3-0.04-8.31-11.03h-2.84v4.48
					c0,3.95,0.08,5.4,1.07,5.4h2.18v1.15h-8.89v-1.15h1.8c0.42,0,0.57-0.27,0.57-0.61V481.9z M1085.94,487.49
					c3.3,0,6.67-1.19,6.67-4.94c0-3.6-2.72-5.82-5.75-5.82h-1.95c-0.34,0-0.88,0.04-0.88,0.54v10.23H1085.94z"/>
				<linearGradient id="SVGID_40_" gradientUnits="userSpaceOnUse" x1="1108.4369" y1="487.5128" x2="1124.2236" y2="487.5128">
					<stop  offset="0" style="stop-color:#00ABEB"/>
					<stop  offset="0.9944" style="stop-color:#00ABEB"/>
				</linearGradient>
				<path class="st42" d="M1111.69,480.41c0,3.1,2.87,4.1,5.29,5.02c4.9,1.8,7.24,3.37,7.24,7.47c0,3.33-2.91,7.51-9.23,7.51
					c-1.88,0-4.22-0.38-5.98-1.07c-0.42-2.38-0.58-3.18-0.58-3.52c0-0.27,0.15-0.46,0.46-0.46c0.38,0,0.5,0.38,0.57,0.73
					c0.54,2.15,4.1,2.95,5.98,2.95c3.06,0,6.21-1.53,6.21-4.98c0-2.95-2.22-4.25-6.01-5.63c-1.72-0.61-6.4-2.11-6.4-6.78
					c0-4.6,4.6-7.01,8.7-7.01c1.61,0,3.1,0.15,4.33,0.73c0.04,0.92,0.12,1.88,0.12,2.8c0,0.27-0.12,0.5-0.42,0.5
					c-0.38,0-0.42-0.31-0.46-0.58c-0.27-1.65-3.37-2.07-4.6-2.07C1114.34,476,1111.69,477.57,1111.69,480.41z"/>
			</g>
		</g>
	</g>
</g>
</svg>
