<?xml version="1.0" encoding="utf-8"?>
<!-- Generator: Adobe Illustrator 16.0.0, SVG Export Plug-In . SVG Version: 6.00 Build 0)  -->
<!DOCTYPE svg PUBLIC "-//W3C//DTD SVG 1.0//EN" "http://www.w3.org/TR/2001/REC-SVG-20010904/DTD/svg10.dtd">
<svg version="1.0" id="Layer_1" xmlns="http://www.w3.org/2000/svg" xmlns:xlink="http://www.w3.org/1999/xlink" x="0px" y="0px"
	 width="100px" height="100px" viewBox="0 0 100 100" enable-background="new 0 0 100 100" xml:space="preserve">
<path d="M83.333,10H16.667C13.001,10,10,13.001,10,16.667v66.666C10,86.999,13.001,90,16.667,90h66.666
	C86.999,90,90,86.999,90,83.333V16.667C90,13.001,86.999,10,83.333,10z M36.667,70H30V43.333h6.667V70z M33.333,40
	c-2.76,0-5-2.236-5-5s2.24-5,5-5c2.761,0,5,2.236,5,5S36.094,40,33.333,40z M70,70h-6.667V56.667c0-3.682-2.984-6.667-6.666-6.667
	S50,52.985,50,56.667V70h-6.667V43.61H50v1.572c1.966-1.146,4.226-1.85,6.667-1.85C64.03,43.333,70,49.304,70,56.667V70z"/>
</svg>
