<?xml version="1.0" encoding="utf-8"?>
<!-- Generator: Adobe Illustrator 25.2.0, SVG Export Plug-In . SVG Version: 6.00 Build 0)  -->
<svg version="1.1" id="Layer_1" xmlns="http://www.w3.org/2000/svg" xmlns:xlink="http://www.w3.org/1999/xlink" x="0px" y="0px"
	 viewBox="0 0 100 100" style="enable-background:new 0 0 100 100;" xml:space="preserve">
<style type="text/css">
	.st0{fill:#FFD002;}
</style>
<path class="st0" d="M83.3,10H16.7C13,10,10,13,10,16.7v66.7c0,3.7,3,6.7,6.7,6.7h66.7c3.7,0,6.7-3,6.7-6.7V16.7
	C90,13,87,10,83.3,10z M36.7,70H30V43.3h6.7V70z M33.3,40c-2.8,0-5-2.2-5-5s2.2-5,5-5c2.8,0,5,2.2,5,5S36.1,40,33.3,40z M70,70h-6.7
	V56.7c0-3.7-3-6.7-6.7-6.7S50,53,50,56.7V70h-6.7V43.6H50v1.6c2-1.1,4.2-1.8,6.7-1.8c7.4,0,13.3,6,13.3,13.3V70z"/>
</svg>
