<?xml version="1.0" encoding="utf-8"?>
<!-- Generator: Adobe Illustrator 16.0.0, SVG Export Plug-In . SVG Version: 6.00 Build 0)  -->
<!DOCTYPE svg PUBLIC "-//W3C//DTD SVG 1.0//EN" "http://www.w3.org/TR/2001/REC-SVG-20010904/DTD/svg10.dtd">
<svg version="1.0" id="Layer_1" xmlns="http://www.w3.org/2000/svg" xmlns:xlink="http://www.w3.org/1999/xlink" x="0px" y="0px"
	 width="100px" height="100px" viewBox="0 0 100 100" enable-background="new 0 0 100 100" xml:space="preserve">
<path d="M83.333,26.666C83.333,17.461,75.872,10,66.667,10C57.461,10,50,17.461,50,26.666v10c-14.421,0-27.305-6.549-35.866-16.822
	c-8.678,19.063-3.242,41.914,13.63,54.938c-4.717,4.229-10.935,6.82-17.764,6.82C17.562,86.881,26.745,90,36.667,90
	c25.777,0,46.666-20.898,46.666-46.667v-10L90,26.666H83.333z M68.33,30C66.494,30,65,28.509,65,26.666
	c0-1.842,1.494-3.333,3.33-3.333c1.843,0,3.337,1.491,3.337,3.333C71.667,28.509,70.173,30,68.33,30z"/>
</svg>
