<?xml version="1.0" encoding="utf-8"?>
<!-- Generator: Adobe Illustrator 25.2.0, SVG Export Plug-In . SVG Version: 6.00 Build 0)  -->
<svg version="1.1" id="Layer_1" xmlns="http://www.w3.org/2000/svg" xmlns:xlink="http://www.w3.org/1999/xlink" x="0px" y="0px"
	 viewBox="0 0 100 100" style="enable-background:new 0 0 100 100;" xml:space="preserve">
<style type="text/css">
	.st0{fill:#FFD002;}
</style>
<path class="st0" d="M83.3,26.7c0-9.2-7.5-16.7-16.7-16.7C57.5,10,50,17.5,50,26.7v10c-14.4,0-27.3-6.5-35.9-16.8
	c-8.7,19.1-3.2,41.9,13.6,54.9C23,79,16.8,81.6,10,81.6c7.6,5.3,16.7,8.4,26.7,8.4c25.8,0,46.7-20.9,46.7-46.7v-10l6.7-6.7H83.3z
	 M68.3,30c-1.8,0-3.3-1.5-3.3-3.3c0-1.8,1.5-3.3,3.3-3.3c1.8,0,3.3,1.5,3.3,3.3C71.7,28.5,70.2,30,68.3,30z"/>
</svg>
