<?xml version="1.0" encoding="utf-8"?>
<!-- Generator: Adobe Illustrator 16.0.0, SVG Export Plug-In . SVG Version: 6.00 Build 0)  -->
<!DOCTYPE svg PUBLIC "-//W3C//DTD SVG 1.0//EN" "http://www.w3.org/TR/2001/REC-SVG-20010904/DTD/svg10.dtd">
<svg version="1.0" id="Layer_1" xmlns="http://www.w3.org/2000/svg" xmlns:xlink="http://www.w3.org/1999/xlink" x="0px" y="0px"
	 width="100px" height="100px" viewBox="0 0 100 100" enable-background="new 0 0 100 100" xml:space="preserve">
<path d="M88.884,30.939c-0.42-3.503-3.721-6.862-7.175-7.312c-21.062-2.617-42.36-2.617-63.415,0
	c-3.457,0.449-6.758,3.809-7.178,7.312c-1.487,12.838-1.487,25.286,0,38.121c0.42,3.503,3.721,6.865,7.178,7.312
	c21.055,2.617,42.354,2.617,63.415,0c3.454-0.446,6.755-3.809,7.175-7.312C90.371,56.226,90.371,43.777,88.884,30.939z
	 M43.333,63.335V36.668l20,13.334L43.333,63.335z"/>
</svg>
